{"title":"Swordfish.2001.1080p.BlurayMUX.VC-1.DD5.1","uid":11921074,"size":15442908121,"categoryP":"video","categoryS":"hd___movies","magnet":"?xt=urn:btih:45d3c49784bb3e32d2c83d3b1872bf7314c38697&amp;dn=Swordfish.2001.1080p.BlurayMUX.VC-1.DD5.1&amp;tr=udp%3A%2F%2Ftracker.openbittorrent.com%3A80&amp;tr=udp%3A%2F%2Fopen.demonii.com%3A1337&amp;tr=udp%3A%2F%2Ftracker.coppersurfer.tk%3A6969&amp;tr=udp%3A%2F%2Fexodus.desync.com%3A6969","seeders":1,"leechers":0,"uploader":"cfiggis","files":1,"time":1431639193,"description":"This is a BlurayMUX of the following Bluray disk: Swordfish (2001)\n\n\nIMDB: http://www.imdb.com/title/tt0244244/\n\n\nThe content is a MUX, which means the audio.video streams are untouched, thus preserving the full, original quality of the content.\n\nBelow is a sample of the MediaInfo for the movie:\n\nGeneral\nFormat : Matroska\nFormat version : Version 2\nFile size : 14.4 GiB\nDuration : 1h 39mn\nOverall bit rate : 20.7 Mbps\nEncoded date : UTC 2015-05-14 19:13:49\nWriting application : MakeMKV v1.9.2 darwin(x86-release)\nWriting library : libmakemkv v1.9.2 (1.3.0/1.4.1) darwin(x86-release)\n\nVideo\nID : 1\nFormat : VC-1\nFormat profile : Advanced@L3\nCodec ID : V_MS/VFW/FOURCC / WVC1\nCodec ID/Hint : Microsoft\nDuration : 1h 39mn\nBit rate : 19.7 Mbps\nWidth : 1 920 pixels\nHeight : 1 080 pixels\nDisplay aspect ratio : 16:9\nFrame rate mode : Constant\nFrame rate : 23.976 fps\nColor space : YUV\nChroma subsampling : 4:2:0\nBit depth : 8 bits\nScan type : Progressive\nCompression mode : Lossy\nBits/(Pixel*Frame) : 0.396\nStream size : 13.7 GiB (95%)\nLanguage : English\nDefault : No\nForced : No\n\nAudio\nID : 2\nFormat : AC-3\nFormat/Info : Audio Coding 3\nMode extension : CM (complete main)\nFormat settings, Endianness : Big\nCodec ID : A_AC3\nDuration : 1h 39mn\nBit rate mode : Constant\nBit rate : 640 Kbps\nChannel(s) : 6 channels\nChannel positions : Front: L C R, Side: L R, LFE\nSampling rate : 48.0 KHz\nBit depth : 16 bits\nCompression mode : Lossy\nStream size : 454 MiB (3%)\nTitle : Surround 5.1\nLanguage : English\nDefault : Yes\nForced : No\n\nText #1\nID : 3\nFormat : PGS\nCodec ID : S_HDMV/PGS\nCodec ID/Info : Picture based subtitle format used on BDs/HD-DVDs\nLanguage : English\nDefault : No\nForced : No","torrent":{"xt":"urn:btih:45d3c49784bb3e32d2c83d3b1872bf7314c38697","amp;dn":"Swordfish.2001.1080p.BlurayMUX.VC-1.DD5.1","amp;tr":["udp%3A%2F%2Ftracker.openbittorrent.com%3A80","udp%3A%2F%2Fopen.demonii.com%3A1337","udp%3A%2F%2Ftracker.coppersurfer.tk%3A6969","udp%3A%2F%2Fexodus.desync.com%3A6969"],"infoHash":"45d3c49784bb3e32d2c83d3b1872bf7314c38697","infoHashBuffer":{"type":"Buffer","data":[69,211,196,151,132,187,62,50,210,200,61,59,24,114,191,115,20,195,134,151]},"announce":[],"urlList":[]}}